<?xml version="1.0" encoding="UTF-8"?>
<svg id="Camada_2" data-name="Camada 2" xmlns="http://www.w3.org/2000/svg" viewBox="0 0 36.07 36.07">
  <defs>
    <style>
      .cls-1 {
        fill: #78a300;
      }
    </style>
  </defs>
  <g id="ELEMENTS">
    <path class="cls-1" d="m26.94,0H9.13C4.09,0,0,4.09,0,9.13v17.81c0,5.04,4.09,9.13,9.13,9.13h6.12v-12.88h-4.52v-5.15h4.52v-3.92c0-4.46,2.66-6.93,6.73-6.93,1.95,0,3.99.35,3.99.35v4.38h-2.25c-2.21,0-2.9,1.37-2.9,2.78v3.34h4.94l-.79,5.15h-4.15v12.88h0s6.11,0,6.11,0c5.04,0,9.13-4.09,9.13-9.13V9.13c0-5.04-4.09-9.13-9.13-9.13Z"/>
  </g>
</svg>