<?xml version="1.0" encoding="UTF-8"?>
<svg id="Camada_2" data-name="Camada 2" xmlns="http://www.w3.org/2000/svg" viewBox="0 0 36.07 36.07">
  <defs>
    <style>
      .cls-1 {
        fill: #ff8503;
      }
    </style>
  </defs>
  <g id="ELEMENTS">
    <g>
      <path class="cls-1" d="m26.94,0H9.13C4.09,0,0,4.09,0,9.13v17.81c0,5.04,4.09,9.13,9.13,9.13h17.81c5.04,0,9.13-4.09,9.13-9.13V9.13c0-5.04-4.09-9.13-9.13-9.13Zm.63,20.95c0,2.36-1.92,4.28-4.28,4.28h-10.94c-2.36,0-4.28-1.91-4.28-4.28v-5.09c0-2.36,1.92-4.28,4.28-4.28h10.94c2.36,0,4.28,1.92,4.28,4.28v5.09Z"/>
      <path class="cls-1" d="m21.14,18.78l-4.9,2.43c-.19.1-.85-.04-.85-.25v-4.98c0-.22.66-.36.85-.25l4.69,2.55c.2.11.4.4.2.5Z"/>
    </g>
  </g>
</svg>