<svg width="178" height="36" viewBox="0 0 178 36" fill="none" xmlns="http://www.w3.org/2000/svg">
<g clip-path="url(#clip0_206_28)">
<path d="M41.4945 35.7029L41.4824 27.5732L37.5098 34.4396H37.1717L33.1991 27.5974V35.7029H32.5229V26.2012H33.1086L37.3529 33.545L41.5971 26.2012H42.1646L42.1767 35.7029H41.5005H41.4945Z" fill="#79A42C" stroke="#79A42D" stroke-width="0.75" stroke-miterlimit="10"/>
<path d="M57.8378 35.1406C57.0892 34.7175 56.4975 34.1433 56.0689 33.4119C55.6402 32.6806 55.4229 31.8586 55.4229 30.9519C55.4229 30.0453 55.6402 29.2293 56.0689 28.4979C56.4975 27.7665 57.0892 27.1863 57.8378 26.7692C58.5864 26.3461 59.4256 26.1406 60.3614 26.1406C61.2972 26.1406 62.1304 26.3461 62.8851 26.7632C63.6337 27.1802 64.2253 27.7545 64.654 28.4858C65.0827 29.2172 65.3 30.0453 65.3 30.958C65.3 31.8706 65.0827 32.6927 64.654 33.4301C64.2253 34.1614 63.6337 34.7357 62.8851 35.1527C62.1364 35.5698 61.2912 35.7753 60.3614 35.7753C59.4317 35.7753 58.5925 35.5637 57.8378 35.1467V35.1406ZM62.5168 34.5906C63.1567 34.2279 63.6639 33.7263 64.0382 33.0916C64.4065 32.4509 64.5936 31.7437 64.5936 30.9519C64.5936 30.1601 64.4065 29.4529 64.0382 28.8122C63.6699 28.1715 63.1628 27.6759 62.5168 27.3132C61.8768 26.9506 61.1584 26.7692 60.3614 26.7692C59.5645 26.7692 58.846 26.9506 58.2 27.3132C57.554 27.6759 57.0469 28.1776 56.6726 28.8122C56.3043 29.4529 56.1171 30.1601 56.1171 30.9519C56.1171 31.7437 56.3043 32.4509 56.6726 33.0916C57.0409 33.7323 57.554 34.2279 58.2 34.5906C58.846 34.9533 59.5645 35.1346 60.3614 35.1346C61.1584 35.1346 61.8768 34.9533 62.5168 34.5906Z" fill="#79A42C" stroke="#79A42D" stroke-width="0.75" stroke-miterlimit="10"/>
<path d="M80.2184 26.8237H76.8013V26.2012H84.3238V26.8237H80.9067V35.7029H80.2124V26.8237H80.2184Z" fill="#79A42C" stroke="#79A42D" stroke-width="0.75" stroke-miterlimit="10"/>
<path d="M98.2519 35.1406C97.5032 34.7175 96.9116 34.1433 96.4829 33.4119C96.0543 32.6806 95.8369 31.8586 95.8369 30.9519C95.8369 30.0453 96.0543 29.2293 96.4829 28.4979C96.9116 27.7665 97.5032 27.1863 98.2519 26.7692C99.0005 26.3461 99.8397 26.1406 100.775 26.1406C101.711 26.1406 102.544 26.3461 103.299 26.7632C104.048 27.1802 104.639 27.7545 105.068 28.4858C105.497 29.2172 105.714 30.0453 105.714 30.958C105.714 31.8706 105.497 32.6927 105.068 33.4301C104.639 34.1614 104.048 34.7357 103.299 35.1527C102.55 35.5698 101.705 35.7753 100.775 35.7753C99.8457 35.7753 99.0065 35.5637 98.2519 35.1467V35.1406ZM102.931 34.5906C103.571 34.2279 104.078 33.7263 104.452 33.0916C104.821 32.4509 105.008 31.7437 105.008 30.9519C105.008 30.1601 104.821 29.4529 104.452 28.8122C104.084 28.1715 103.577 27.6759 102.931 27.3132C102.291 26.9506 101.572 26.7692 100.775 26.7692C99.9786 26.7692 99.2601 26.9506 98.6141 27.3132C97.9681 27.6759 97.461 28.1776 97.0866 28.8122C96.7184 29.4529 96.5312 30.1601 96.5312 30.9519C96.5312 31.7437 96.7184 32.4509 97.0866 33.0916C97.4549 33.7323 97.9681 34.2279 98.6141 34.5906C99.2601 34.9533 99.9786 35.1346 100.775 35.1346C101.572 35.1346 102.291 34.9533 102.931 34.5906Z" fill="#79A42C" stroke="#79A42D" stroke-width="0.75" stroke-miterlimit="10"/>
<path d="M125.547 35.703L123.283 32.5237C122.951 32.5721 122.643 32.5902 122.359 32.5902H119.648V35.697H118.954V26.1953H122.359C123.555 26.1953 124.49 26.4794 125.167 27.0415C125.843 27.6097 126.181 28.3894 126.181 29.3988C126.181 30.1483 125.988 30.783 125.607 31.2907C125.221 31.8044 124.672 32.1611 123.959 32.3726L126.332 35.697H125.547V35.703ZM122.359 31.9858C123.373 31.9858 124.146 31.7621 124.678 31.3149C125.209 30.8676 125.481 30.2329 125.481 29.4049C125.481 28.5768 125.215 27.9482 124.678 27.4948C124.146 27.0476 123.373 26.8239 122.359 26.8239H119.648V31.9797H122.359V31.9858Z" fill="#79A42C" stroke="#79A42D" stroke-width="0.75" stroke-miterlimit="10"/>
<path d="M140.079 35.4128C139.451 35.171 138.962 34.8628 138.605 34.482L138.919 33.9682C139.251 34.3188 139.704 34.6089 140.266 34.8325C140.833 35.0562 141.425 35.165 142.047 35.165C142.952 35.165 143.635 34.9957 144.093 34.6512C144.552 34.3067 144.788 33.8594 144.788 33.3094C144.788 32.8863 144.667 32.5417 144.419 32.2939C144.178 32.0401 143.87 31.8467 143.514 31.7076C143.152 31.5747 142.663 31.4296 142.047 31.2845C141.352 31.1153 140.791 30.946 140.374 30.7829C139.952 30.6197 139.596 30.3718 139.306 30.0273C139.01 29.6888 138.865 29.2355 138.865 28.6613C138.865 28.2019 138.986 27.7788 139.233 27.392C139.475 27.0051 139.849 26.7029 140.35 26.4732C140.851 26.2496 141.479 26.1348 142.228 26.1348C142.753 26.1348 143.266 26.2133 143.773 26.3644C144.281 26.5156 144.715 26.7271 145.09 26.987L144.83 27.5431C144.45 27.2832 144.033 27.0837 143.574 26.9447C143.115 26.8117 142.669 26.7392 142.228 26.7392C141.352 26.7392 140.688 26.9145 140.236 27.2711C139.783 27.6217 139.559 28.081 139.559 28.6432C139.559 29.0663 139.68 29.4108 139.928 29.6586C140.169 29.9125 140.477 30.1059 140.833 30.2449C141.196 30.3779 141.685 30.5229 142.312 30.6801C143.007 30.8493 143.562 31.0186 143.979 31.1818C144.395 31.345 144.752 31.5928 145.041 31.9192C145.337 32.2516 145.482 32.6929 145.482 33.255C145.482 33.7143 145.355 34.1375 145.108 34.5182C144.86 34.899 144.48 35.2013 143.961 35.4249C143.447 35.6485 142.814 35.7634 142.065 35.7634C141.371 35.7634 140.706 35.6425 140.079 35.4007V35.4128Z" fill="#79A42C" stroke="#79A42D" stroke-width="0.75" stroke-miterlimit="10"/>
<path d="M1.56344 1.56433V9.40987H11.338V10.6187H1.56344V18.7242H0.223145V0.355469H12.4911V1.56433H1.56344Z" fill="#79A42C" stroke="#79A42D" stroke-width="0.75" stroke-miterlimit="10"/>
<path d="M19.4403 17.6365C17.9914 16.8206 16.8503 15.7084 16.0171 14.288C15.19 12.8736 14.7734 11.29 14.7734 9.53715C14.7734 7.78429 15.19 6.20672 16.0171 4.78631C16.8443 3.37193 17.9853 2.25373 19.4403 1.43775C20.8893 0.621767 22.5134 0.216797 24.3125 0.216797C26.1116 0.216797 27.7357 0.621767 29.1907 1.42566C30.6397 2.22956 31.7807 3.34171 32.6139 4.75608C33.441 6.17046 33.8576 7.76616 33.8576 9.5311C33.8576 11.296 33.441 12.8917 32.6139 14.3061C31.7868 15.7205 30.6457 16.8326 29.1907 17.6365C27.7417 18.4404 26.1177 18.8454 24.3125 18.8454C22.5073 18.8454 20.8893 18.4404 19.4403 17.6245V17.6365ZM28.4843 16.5727C29.722 15.8716 30.7061 14.9045 31.4185 13.6715C32.1369 12.4384 32.4931 11.0603 32.4931 9.53715C32.4931 8.01398 32.1369 6.63587 31.4185 5.40283C30.7 4.16979 29.722 3.20269 28.4843 2.50155C27.2406 1.80041 25.852 1.44984 24.3185 1.44984C22.785 1.44984 21.3844 1.80041 20.1407 2.50155C18.8909 3.20269 17.9068 4.16979 17.1944 5.40283C16.476 6.63587 16.1198 8.01398 16.1198 9.53715C16.1198 11.0603 16.476 12.4384 17.1944 13.6715C17.9129 14.9045 18.8909 15.8716 20.1407 16.5727C21.3904 17.2739 22.785 17.6245 24.3185 17.6245C25.852 17.6245 27.2467 17.2739 28.4843 16.5727Z" fill="#79A42C" stroke="#79A42D" stroke-width="0.75" stroke-miterlimit="10"/>
<path d="M51.2328 18.7242L46.8557 12.5831C46.2097 12.6738 45.612 12.7161 45.0747 12.7161H39.8343V18.7242H38.5V0.355469H45.0807C47.387 0.355469 49.1982 0.899458 50.5083 1.99348C51.8185 3.0875 52.4765 4.60463 52.4765 6.54486C52.4765 7.9955 52.1022 9.21645 51.3596 10.2077C50.617 11.199 49.5544 11.8941 48.1779 12.293L52.7663 18.7242H51.2449H51.2328ZM45.0747 11.5314C47.0308 11.5314 48.5281 11.0962 49.5544 10.2319C50.5868 9.36756 51.1 8.13452 51.1 6.54486C51.1 4.9552 50.5868 3.72216 49.5544 2.85782C48.522 1.99348 47.0308 1.55829 45.0747 1.55829H39.8343V11.5314H45.0747Z" fill="#79A42C" stroke="#79A42D" stroke-width="0.75" stroke-miterlimit="10"/>
<path d="M60.6151 1.56433H54.0103V0.355469H68.5543V1.56433H61.9494V18.7242H60.6151V1.56433Z" fill="#79A42C" stroke="#79A42D" stroke-width="0.75" stroke-miterlimit="10"/>
<path d="M73.2633 16.8323C71.9774 15.4844 71.3374 13.52 71.3374 10.927V0.355469H72.6717V10.8786C72.6717 13.1332 73.1848 14.8256 74.2172 15.9438C75.2496 17.062 76.7409 17.6241 78.697 17.6241C80.6531 17.6241 82.1202 17.062 83.1525 15.9438C84.1849 14.8256 84.6981 13.1332 84.6981 10.8786V0.355469H86.0324V10.933C86.0324 13.52 85.3864 15.4905 84.0944 16.8383C82.8024 18.1862 80.9912 18.8571 78.6668 18.8571C76.3424 18.8571 74.5372 18.1862 73.2573 16.8383L73.2633 16.8323Z" fill="#79A42C" stroke="#79A42D" stroke-width="0.75" stroke-miterlimit="10"/>
<path d="M107.218 0.355469V18.7242H106.119L93.6155 2.76715V18.7242H92.2812V0.355469H93.4102L105.883 16.3125V0.355469H107.218Z" fill="#79A42C" stroke="#79A42D" stroke-width="0.75" stroke-miterlimit="10"/>
<path d="M134.687 1.56433H128.083V0.355469H142.627V1.56433H136.022V18.7242H134.687V1.56433Z" fill="#79A42C" stroke="#79A42D" stroke-width="0.75" stroke-miterlimit="10"/>
<path d="M147.33 16.8323C146.044 15.4844 145.404 13.52 145.404 10.927V0.355469H146.738V10.8786C146.738 13.1332 147.251 14.8256 148.284 15.9438C149.316 17.062 150.807 17.6241 152.763 17.6241C154.719 17.6241 156.187 17.062 157.219 15.9438C158.251 14.8256 158.765 13.1332 158.765 10.8786V0.355469H160.099V10.933C160.099 13.52 159.453 15.4905 158.161 16.8383C156.869 18.1862 155.058 18.8571 152.733 18.8571C150.409 18.8571 148.604 18.1862 147.324 16.8383L147.33 16.8323Z" fill="#79A42C" stroke="#79A42D" stroke-width="0.75" stroke-miterlimit="10"/>
<path d="M167.332 18.1624C166.118 17.697 165.171 17.0986 164.488 16.3672L165.092 15.3699C165.738 16.0529 166.607 16.609 167.7 17.0382C168.793 17.4673 169.94 17.6789 171.148 17.6789C172.892 17.6789 174.214 17.3464 175.108 16.6815C176.002 16.0167 176.442 15.1523 176.442 14.0825C176.442 13.2604 176.207 12.6016 175.736 12.112C175.265 11.6224 174.679 11.2477 173.979 10.9817C173.279 10.7218 172.337 10.4498 171.148 10.1658C169.801 9.83332 168.72 9.50692 167.911 9.19262C167.096 8.87832 166.408 8.39477 165.841 7.73594C165.273 7.07711 164.989 6.20068 164.989 5.10061C164.989 4.20605 165.225 3.39007 165.696 2.64662C166.167 1.90316 166.891 1.31082 167.857 0.875628C168.829 0.440437 170.037 0.216797 171.486 0.216797C172.5 0.216797 173.496 0.367905 174.474 0.664077C175.452 0.960249 176.297 1.36522 177.016 1.87294L176.521 2.94883C175.784 2.44111 174.981 2.05427 174.094 1.79437C173.212 1.53446 172.343 1.40148 171.486 1.40148C169.789 1.40148 168.503 1.73997 167.634 2.42298C166.758 3.10598 166.324 3.98846 166.324 5.07039C166.324 5.89242 166.559 6.55125 167.03 7.04084C167.501 7.53043 168.087 7.90518 168.787 8.17113C169.487 8.43104 170.441 8.71512 171.643 9.01129C172.989 9.34373 174.064 9.67012 174.867 9.98443C175.67 10.2987 176.358 10.7762 176.925 11.4169C177.493 12.0576 177.777 12.9159 177.777 14.0039C177.777 14.8985 177.535 15.7084 177.058 16.4458C176.575 17.1832 175.839 17.7695 174.842 18.2047C173.846 18.6399 172.621 18.8635 171.172 18.8635C169.825 18.8635 168.545 18.6339 167.332 18.1684V18.1624Z" fill="#79A42C" stroke="#79A42D" stroke-width="0.75" stroke-miterlimit="10"/>
<path d="M120.324 0.355469H118.984L110.544 18.7242H111.987L114.317 13.5563L114.843 12.426L119.642 1.82424L124.46 12.426L124.961 13.5563L127.322 18.7242H128.759L120.324 0.355469Z" fill="#79A42C" stroke="#79A42D" stroke-width="0.75" stroke-miterlimit="10"/>
</g>
<defs>
<clipPath id="clip0_206_28">
<rect width="178" height="36" fill="white"/>
</clipPath>
</defs>
</svg>
