<?xml version="1.0" encoding="utf-8"?>
<!-- Generator: Adobe Illustrator 28.1.0, SVG Export Plug-In . SVG Version: 6.00 Build 0)  -->
<svg version="1.1" id="Camada_1" xmlns="http://www.w3.org/2000/svg" xmlns:xlink="http://www.w3.org/1999/xlink" x="0px" y="0px"
	 viewBox="0 0 178 36" style="enable-background:new 0 0 178 36;" xml:space="preserve">
<style type="text/css">
	.st0{clip-path:url(#SVGID_00000162350030815724598410000001301490192285842826_);}
	.st1{fill:#FF8503;stroke:#FF8503;stroke-width:0.75;stroke-miterlimit:10;}
</style>
<g>
	<defs>
		<rect id="SVGID_1_" width="178" height="36"/>
	</defs>
	<clipPath id="SVGID_00000012438220930993506090000015511954185947408788_">
		<use xlink:href="#SVGID_1_"  style="overflow:visible;"/>
	</clipPath>
	<g style="clip-path:url(#SVGID_00000012438220930993506090000015511954185947408788_);">
		<path class="st1" d="M41.5,35.7l0-8.1l-4,6.9h-0.3l-4-6.8v8.1h-0.7v-9.5h0.6l4.2,7.3l4.2-7.3h0.6l0,9.5H41.5L41.5,35.7z"/>
		<path class="st1" d="M57.8,35.1c-0.7-0.4-1.3-1-1.8-1.7c-0.4-0.7-0.6-1.6-0.6-2.5c0-0.9,0.2-1.7,0.6-2.5c0.4-0.7,1-1.3,1.8-1.7
			c0.7-0.4,1.6-0.6,2.5-0.6c0.9,0,1.8,0.2,2.5,0.6c0.7,0.4,1.3,1,1.8,1.7c0.4,0.7,0.6,1.6,0.6,2.5c0,0.9-0.2,1.7-0.6,2.5
			c-0.4,0.7-1,1.3-1.8,1.7c-0.7,0.4-1.6,0.6-2.5,0.6C59.4,35.8,58.6,35.6,57.8,35.1L57.8,35.1z M62.5,34.6c0.6-0.4,1.1-0.9,1.5-1.5
			c0.4-0.6,0.6-1.3,0.6-2.1s-0.2-1.5-0.6-2.1c-0.4-0.6-0.9-1.1-1.5-1.5c-0.6-0.4-1.4-0.5-2.2-0.5c-0.8,0-1.5,0.2-2.2,0.5
			c-0.6,0.4-1.2,0.9-1.5,1.5c-0.4,0.6-0.6,1.3-0.6,2.1s0.2,1.5,0.6,2.1c0.4,0.6,0.9,1.1,1.5,1.5c0.6,0.4,1.4,0.5,2.2,0.5
			C61.2,35.1,61.9,35,62.5,34.6z"/>
		<path class="st1" d="M80.2,26.8h-3.4v-0.6h7.5v0.6h-3.4v8.9h-0.7L80.2,26.8L80.2,26.8z"/>
		<path class="st1" d="M98.3,35.1c-0.7-0.4-1.3-1-1.8-1.7c-0.4-0.7-0.6-1.6-0.6-2.5c0-0.9,0.2-1.7,0.6-2.5c0.4-0.7,1-1.3,1.8-1.7
			c0.7-0.4,1.6-0.6,2.5-0.6c0.9,0,1.8,0.2,2.5,0.6c0.7,0.4,1.3,1,1.8,1.7c0.4,0.7,0.6,1.6,0.6,2.5c0,0.9-0.2,1.7-0.6,2.5
			c-0.4,0.7-1,1.3-1.8,1.7c-0.7,0.4-1.6,0.6-2.5,0.6C99.8,35.8,99,35.6,98.3,35.1L98.3,35.1z M102.9,34.6c0.6-0.4,1.1-0.9,1.5-1.5
			c0.4-0.6,0.6-1.3,0.6-2.1s-0.2-1.5-0.6-2.1c-0.4-0.6-0.9-1.1-1.5-1.5c-0.6-0.4-1.4-0.5-2.2-0.5c-0.8,0-1.5,0.2-2.2,0.5
			c-0.6,0.4-1.2,0.9-1.5,1.5c-0.4,0.6-0.6,1.3-0.6,2.1s0.2,1.5,0.6,2.1c0.4,0.6,0.9,1.1,1.5,1.5c0.6,0.4,1.4,0.5,2.2,0.5
			C101.6,35.1,102.3,35,102.9,34.6z"/>
		<path class="st1" d="M125.5,35.7l-2.3-3.2c-0.3,0-0.6,0.1-0.9,0.1h-2.7v3.1H119v-9.5h3.4c1.2,0,2.1,0.3,2.8,0.8
			c0.7,0.6,1,1.3,1,2.4c0,0.7-0.2,1.4-0.6,1.9c-0.4,0.5-0.9,0.9-1.6,1.1l2.4,3.3L125.5,35.7L125.5,35.7z M122.4,32
			c1,0,1.8-0.2,2.3-0.7c0.5-0.4,0.8-1.1,0.8-1.9c0-0.8-0.3-1.5-0.8-1.9c-0.5-0.4-1.3-0.7-2.3-0.7h-2.7V32L122.4,32L122.4,32z"/>
		<path class="st1" d="M140.1,35.4c-0.6-0.2-1.1-0.5-1.5-0.9l0.3-0.5c0.3,0.4,0.8,0.6,1.3,0.9c0.6,0.2,1.2,0.3,1.8,0.3
			c0.9,0,1.6-0.2,2-0.5c0.5-0.3,0.7-0.8,0.7-1.3c0-0.4-0.1-0.8-0.4-1c-0.2-0.3-0.5-0.4-0.9-0.6c-0.4-0.1-0.9-0.3-1.5-0.4
			c-0.7-0.2-1.3-0.3-1.7-0.5c-0.4-0.2-0.8-0.4-1.1-0.8c-0.3-0.3-0.4-0.8-0.4-1.4c0-0.5,0.1-0.9,0.4-1.3c0.2-0.4,0.6-0.7,1.1-0.9
			c0.5-0.2,1.1-0.3,1.9-0.3c0.5,0,1,0.1,1.5,0.2c0.5,0.2,0.9,0.4,1.3,0.6l-0.3,0.6c-0.4-0.3-0.8-0.5-1.3-0.6
			c-0.5-0.1-0.9-0.2-1.3-0.2c-0.9,0-1.5,0.2-2,0.5c-0.5,0.4-0.7,0.8-0.7,1.4c0,0.4,0.1,0.8,0.4,1c0.2,0.3,0.5,0.4,0.9,0.6
			c0.4,0.1,0.9,0.3,1.5,0.4c0.7,0.2,1.2,0.3,1.7,0.5c0.4,0.2,0.8,0.4,1.1,0.7c0.3,0.3,0.4,0.8,0.4,1.3c0,0.5-0.1,0.9-0.4,1.3
			c-0.2,0.4-0.6,0.7-1.1,0.9c-0.5,0.2-1.1,0.3-1.9,0.3C141.4,35.8,140.7,35.6,140.1,35.4L140.1,35.4z"/>
		<path class="st1" d="M1.6,1.6v7.8h9.8v1.2H1.6v8.1H0.2V0.4h12.3v1.2H1.6z"/>
		<path class="st1" d="M19.4,17.6c-1.4-0.8-2.6-1.9-3.4-3.3c-0.8-1.4-1.2-3-1.2-4.8c0-1.8,0.4-3.3,1.2-4.8c0.8-1.4,2-2.5,3.4-3.3
			c1.4-0.8,3.1-1.2,4.9-1.2s3.4,0.4,4.9,1.2c1.4,0.8,2.6,1.9,3.4,3.3c0.8,1.4,1.2,3,1.2,4.8c0,1.8-0.4,3.4-1.2,4.8
			c-0.8,1.4-2,2.5-3.4,3.3c-1.4,0.8-3.1,1.2-4.9,1.2S20.9,18.4,19.4,17.6L19.4,17.6z M28.5,16.6c1.2-0.7,2.2-1.7,2.9-2.9
			c0.7-1.2,1.1-2.6,1.1-4.1c0-1.5-0.4-2.9-1.1-4.1c-0.7-1.2-1.7-2.2-2.9-2.9c-1.2-0.7-2.6-1.1-4.2-1.1c-1.5,0-2.9,0.4-4.2,1.1
			c-1.2,0.7-2.2,1.7-2.9,2.9c-0.7,1.2-1.1,2.6-1.1,4.1c0,1.5,0.4,2.9,1.1,4.1c0.7,1.2,1.7,2.2,2.9,2.9c1.2,0.7,2.6,1.1,4.2,1.1
			C25.9,17.6,27.2,17.3,28.5,16.6z"/>
		<path class="st1" d="M51.2,18.7l-4.4-6.1c-0.6,0.1-1.2,0.1-1.8,0.1h-5.2v6h-1.3V0.4h6.6c2.3,0,4.1,0.5,5.4,1.6
			c1.3,1.1,2,2.6,2,4.6c0,1.5-0.4,2.7-1.1,3.7c-0.7,1-1.8,1.7-3.2,2.1l4.6,6.4H51.2L51.2,18.7z M45.1,11.5c2,0,3.5-0.4,4.5-1.3
			c1-0.9,1.5-2.1,1.5-3.7s-0.5-2.8-1.5-3.7c-1-0.9-2.5-1.3-4.5-1.3h-5.2v10H45.1z"/>
		<path class="st1" d="M60.6,1.6H54V0.4h14.5v1.2h-6.6v17.2h-1.3V1.6z"/>
		<path class="st1" d="M73.3,16.8c-1.3-1.3-1.9-3.3-1.9-5.9V0.4h1.3v10.5c0,2.3,0.5,3.9,1.5,5.1s2.5,1.7,4.5,1.7s3.4-0.6,4.5-1.7
			c1-1.1,1.5-2.8,1.5-5.1V0.4H86v10.6c0,2.6-0.6,4.6-1.9,5.9c-1.3,1.3-3.1,2-5.4,2S74.5,18.2,73.3,16.8L73.3,16.8z"/>
		<path class="st1" d="M107.2,0.4v18.4h-1.1l-12.5-16v16h-1.3V0.4h1.1l12.5,16v-16H107.2z"/>
		<path class="st1" d="M134.7,1.6h-6.6V0.4h14.5v1.2H136v17.2h-1.3V1.6z"/>
		<path class="st1" d="M147.3,16.8c-1.3-1.3-1.9-3.3-1.9-5.9V0.4h1.3v10.5c0,2.3,0.5,3.9,1.5,5.1c1,1.1,2.5,1.7,4.5,1.7
			s3.4-0.6,4.5-1.7c1-1.1,1.5-2.8,1.5-5.1V0.4h1.3v10.6c0,2.6-0.6,4.6-1.9,5.9c-1.3,1.3-3.1,2-5.4,2
			C150.4,18.9,148.6,18.2,147.3,16.8L147.3,16.8z"/>
		<path class="st1" d="M167.3,18.2c-1.2-0.5-2.2-1.1-2.8-1.8l0.6-1c0.6,0.7,1.5,1.2,2.6,1.7c1.1,0.4,2.2,0.6,3.4,0.6
			c1.7,0,3.1-0.3,4-1c0.9-0.7,1.3-1.5,1.3-2.6c0-0.8-0.2-1.5-0.7-2c-0.5-0.5-1.1-0.9-1.8-1.1c-0.7-0.3-1.6-0.5-2.8-0.8
			c-1.3-0.3-2.4-0.7-3.2-1c-0.8-0.3-1.5-0.8-2.1-1.5c-0.6-0.7-0.9-1.5-0.9-2.6c0-0.9,0.2-1.7,0.7-2.5c0.5-0.7,1.2-1.3,2.2-1.8
			c1-0.4,2.2-0.7,3.6-0.7c1,0,2,0.2,3,0.4s1.8,0.7,2.5,1.2l-0.5,1.1c-0.7-0.5-1.5-0.9-2.4-1.2c-0.9-0.3-1.8-0.4-2.6-0.4
			c-1.7,0-3,0.3-3.9,1c-0.9,0.7-1.3,1.6-1.3,2.6c0,0.8,0.2,1.5,0.7,2c0.5,0.5,1.1,0.9,1.8,1.1c0.7,0.3,1.7,0.5,2.9,0.8
			c1.3,0.3,2.4,0.7,3.2,1c0.8,0.3,1.5,0.8,2.1,1.4c0.6,0.6,0.9,1.5,0.9,2.6c0,0.9-0.2,1.7-0.7,2.4c-0.5,0.7-1.2,1.3-2.2,1.8
			c-1,0.4-2.2,0.7-3.7,0.7C169.8,18.9,168.5,18.6,167.3,18.2L167.3,18.2z"/>
		<path class="st1" d="M120.3,0.4H119l-8.4,18.4h1.4l2.3-5.2l0.5-1.1l4.8-10.6l4.8,10.6l0.5,1.1l2.4,5.2h1.4L120.3,0.4z"/>
	</g>
</g>
</svg>
